<svg width="164" height="28" viewBox="0 0 164 28" fill="none" xmlns="http://www.w3.org/2000/svg">
<rect width="164" height="28" stroke="black" style="stroke:black;stroke:black;stroke-opacity:1;"/>
<path fill-rule="evenodd" clip-rule="evenodd" d="M27.6687 22.0573V20.1853C27.6687 20.0256 27.5928 19.8762 27.4653 19.7805L27.4079 19.7048L27.3385 19.6442C27.1238 19.5223 27.0775 19.4962 27.0559 19.4856L23.6888 17.5696V9.75434L26.9113 7.9231C26.9113 7.9231 27.1371 7.79418 27.1488 7.78713L27.1488 7.7871C27.168 7.7751 27.168 7.77508 27.2002 7.75427L30.5544 5.84781L33.7783 7.68412C33.9603 7.78791 34.0258 7.82471 34.0549 7.8389L37.4205 9.75415V12.305C37.4205 12.4869 37.5191 12.655 37.6791 12.746L39.3321 13.6863C39.6773 13.8827 40.1091 13.6376 40.109 13.2452L40.1082 8.99989C40.1102 8.77069 40.0494 8.54073 39.933 8.33861C39.815 8.1344 39.6447 7.96542 39.4366 7.84688L39.2242 7.72732L35.3297 5.51133L35.1174 5.39345L31.2862 3.21465C31.1138 3.09386 30.8678 3.01336 30.6183 3.00145C30.3613 2.98966 30.1078 3.0501 29.8836 3.17715L29.6689 3.30237L25.9871 5.39424C25.8452 5.47378 25.8451 5.47382 25.7754 5.51313L25.7753 5.51319L25.5654 5.63411L21.7214 7.82035C21.5243 7.91414 21.3346 8.08566 21.2036 8.2944C21.0711 8.50245 21 8.74449 21 8.99238V13.662L21.001 18.3241C20.9987 18.5526 21.0595 18.7826 21.1762 18.9853C21.2942 19.1895 21.465 19.3587 21.6732 19.477L21.8844 19.5962C24.5429 21.109 25.7664 21.8051 25.7815 21.8136L25.9932 21.9311L26.878 22.4902C27.2285 22.6984 27.6687 22.4539 27.6687 22.0573ZM38.1962 14.9321C37.8511 14.7365 37.42 14.9816 37.42 15.3736V15.8495L28.8792 10.9926L28.5922 10.8281C28.3321 10.6804 28.0112 10.6958 27.7691 10.8654L27.5418 10.9916L26.2815 11.7055L25.7732 11.9927C25.4036 12.203 25.288 12.6634 25.5045 13.031L25.7935 13.5215L26.0851 14.0173C26.2993 14.3808 26.768 14.4941 27.1403 14.2798C27.6359 13.9983 27.6587 13.9854 27.6803 13.9707C27.6817 13.9697 27.6831 13.9687 27.6846 13.9676L28.2079 13.6716L29.243 14.2603L29.242 23.4028C29.242 23.8164 29.5827 24.1519 30.0029 24.1519C30.1957 24.1519 30.38 24.0803 30.5208 23.952L31.6535 23.0514C31.8514 22.8945 31.9555 22.6518 31.9339 22.4037L31.9355 15.7923L38.0778 19.2963C38.4606 19.5133 38.8897 19.367 39.1819 18.9994L39.9612 18.2176C40.0558 18.1222 40.1086 17.9946 40.1086 17.8617V16.3105C40.1086 16.1283 40.0097 15.96 39.8492 15.869L38.1962 14.9321Z" fill="black" style="fill:black;fill:black;fill-opacity:1;"/>
<path fill-rule="evenodd" clip-rule="evenodd" d="M45.6213 17.9114C45.5245 17.9114 45.4397 17.8758 45.3669 17.8047C45.2944 17.7334 45.2578 17.6503 45.2578 17.5553V8.29458C45.2578 8.19028 45.2944 8.10471 45.3669 8.0383C45.4397 7.97168 45.5245 7.93848 45.6213 7.93848H47.6564C47.7631 7.93848 47.8502 7.97168 47.9181 8.0383C47.9859 8.10471 48.0198 8.19028 48.0198 8.29458V15.6748H52.3807C52.4871 15.6748 52.5769 15.7102 52.6495 15.7815C52.7222 15.8528 52.7586 15.9406 52.7586 16.0451V17.5553C52.7586 17.6598 52.7222 17.7454 52.6495 17.8118C52.5769 17.8782 52.4871 17.9114 52.3807 17.9114H45.6213ZM53.4124 17.9114C53.3349 17.9114 53.2644 17.8807 53.2016 17.8187C53.1385 17.757 53.1071 17.6882 53.1071 17.6122C53.1071 17.5553 53.1121 17.5126 53.1216 17.484L56.5086 8.35162C56.6054 8.07619 56.7992 7.93848 57.09 7.93848H59.3576C59.6482 7.93848 59.8421 8.07619 59.939 8.35162L63.326 17.484C63.3357 17.5126 63.3405 17.5553 63.3405 17.6122C63.3405 17.6882 63.3089 17.757 63.2459 17.8187C63.183 17.8807 63.1127 17.9114 63.0352 17.9114H61.1454C60.913 17.9114 60.7482 17.8069 60.6513 17.5979L60.1279 16.2161H56.3197L55.7963 17.5979C55.6994 17.8069 55.5346 17.9114 55.302 17.9114H53.4124ZM56.93 14.0789H59.5173L58.2236 10.4458L56.93 14.0789ZM64.8232 17.9114C64.7166 17.9114 64.627 17.8782 64.5543 17.8118C64.4817 17.7454 64.4454 17.6598 64.4454 17.5553V8.30884C64.4454 8.20454 64.4817 8.11653 64.5543 8.04543C64.627 7.97413 64.7166 7.93848 64.8232 7.93848H66.4659C66.7081 7.93848 66.8827 8.04299 66.9891 8.2518L69.4893 12.64L72.0041 8.2518C72.1106 8.04299 72.2852 7.93848 72.5273 7.93848H74.17C74.2766 7.93848 74.3662 7.97413 74.4389 8.04543C74.5115 8.11653 74.5478 8.20454 74.5478 8.30884V17.5553C74.5478 17.6598 74.5115 17.7454 74.4389 17.8118C74.3662 17.8782 74.2766 17.9114 74.17 17.9114H72.3238C72.227 17.9114 72.1422 17.8758 72.0694 17.8047C71.9969 17.7334 71.9605 17.6503 71.9605 17.5553V12.3692L70.3906 15.1903C70.2646 15.4087 70.095 15.5179 69.8818 15.5179H69.0969C68.903 15.5179 68.7334 15.4087 68.5881 15.1903L67.0327 12.3692V17.5553C67.0327 17.6598 66.9963 17.7454 66.9238 17.8118C66.8511 17.8782 66.7615 17.9114 66.6548 17.9114H64.8232ZM76.8878 17.9114C76.791 17.9114 76.7062 17.8758 76.6336 17.8047C76.5609 17.7334 76.5245 17.6503 76.5245 17.5553V8.30884C76.5245 8.20454 76.5584 8.11653 76.6261 8.04543C76.6941 7.97413 76.7814 7.93848 76.8878 7.93848H81.3795C82.6102 7.93848 83.526 8.18539 84.1269 8.67941C84.7276 9.17323 85.0282 9.87607 85.0282 10.7879C85.0282 11.2439 84.9045 11.6381 84.6576 11.9703C84.4104 12.3028 84.1365 12.545 83.8361 12.697C84.2336 12.8679 84.5678 13.1505 84.8392 13.5447C85.1105 13.9389 85.2462 14.383 85.2462 14.8768C85.2462 15.8359 84.9238 16.5818 84.2795 17.1137C83.6351 17.6454 82.7121 17.9114 81.5103 17.9114H76.8878ZM81.0745 11.8847C81.433 11.8847 81.7093 11.7897 81.9032 11.5997C82.0969 11.4096 82.194 11.1629 82.194 10.8589C82.194 10.5644 82.0994 10.3246 81.9105 10.1394C81.7215 9.954 81.4428 9.86151 81.0745 9.86151H79.2576V11.8847H81.0745ZM81.2054 15.9879C81.5833 15.9879 81.8766 15.881 82.0849 15.6672C82.2931 15.4537 82.3975 15.1901 82.3975 14.8766C82.3975 14.5537 82.2908 14.2854 82.0776 14.0715C81.8643 13.858 81.5737 13.751 81.2054 13.751H79.2576V15.9879H81.2054ZM87.1658 17.9114C87.0688 17.9114 86.9842 17.8758 86.9114 17.8047C86.8387 17.7334 86.8023 17.6503 86.8023 17.5553V8.30884C86.8023 8.20454 86.8364 8.11653 86.9041 8.04543C86.9719 7.97413 87.0592 7.93848 87.1658 7.93848H90.9889C92.423 7.93848 93.5373 8.27319 94.3322 8.94303C95.1266 9.61245 95.5435 10.5742 95.582 11.8279C95.5918 12.1034 95.5968 12.469 95.5968 12.925C95.5968 13.3809 95.5918 13.7417 95.582 14.0077C95.4851 16.6101 93.9782 17.9114 91.0614 17.9114H87.1658ZM90.9883 15.7741C91.5986 15.7741 92.0492 15.6317 92.3402 15.3467C92.6308 15.0619 92.7858 14.6058 92.8052 13.9789C92.8247 13.7035 92.8343 13.3474 92.8343 12.9104C92.8343 12.4734 92.8247 12.122 92.8052 11.8562C92.7858 11.2483 92.6185 10.7995 92.3038 10.5098C91.9887 10.2201 91.5262 10.0752 90.9156 10.0752H89.5346V15.7741H90.9883ZM96.6864 17.9114C96.6088 17.9114 96.5386 17.8807 96.4756 17.8187C96.4124 17.757 96.381 17.6882 96.381 17.6122C96.381 17.5553 96.3858 17.5126 96.3956 17.484L99.7823 8.35162C99.8794 8.07619 100.073 7.93848 100.364 7.93848H102.632C102.922 7.93848 103.116 8.07619 103.213 8.35162L106.6 17.484C106.61 17.5126 106.614 17.5553 106.614 17.6122C106.614 17.6882 106.583 17.757 106.52 17.8187C106.457 17.8807 106.387 17.9114 106.309 17.9114H104.42C104.187 17.9114 104.022 17.8069 103.925 17.5979L103.402 16.2161H99.5934L99.07 17.5979C98.9734 17.8069 98.8088 17.9114 98.5762 17.9114H96.6864ZM100.204 14.0789H102.791L101.498 10.4458L100.204 14.0789Z" fill="black" style="fill:black;fill:black;fill-opacity:1;"/>
<path fill-rule="evenodd" clip-rule="evenodd" d="M109.635 18.0536C109.528 18.0536 109.439 18.0204 109.366 17.954C109.293 17.8876 109.257 17.802 109.257 17.6975V10.4029H106.698C106.592 10.4029 106.502 10.3697 106.429 10.3032C106.357 10.2366 106.32 10.1513 106.32 10.0468V8.45101C106.32 8.34671 106.357 8.2587 106.429 8.1876C106.502 8.1163 106.592 8.08065 106.698 8.08065H114.591C114.698 8.08065 114.788 8.1163 114.86 8.1876C114.933 8.2587 114.969 8.34671 114.969 8.45101V10.0468C114.969 10.1513 114.933 10.2366 114.86 10.3032C114.788 10.3697 114.698 10.4029 114.591 10.4029H112.033V17.6975C112.033 17.802 111.997 17.8876 111.924 17.954C111.851 18.0204 111.762 18.0536 111.655 18.0536H109.635ZM116.611 18.0536C116.515 18.0536 116.43 18.018 116.357 17.9469C116.284 17.8756 116.248 17.7924 116.248 17.6975V8.45101C116.248 8.34671 116.282 8.2587 116.35 8.1876C116.418 8.1163 116.505 8.08065 116.611 8.08065H123.472C123.579 8.08065 123.669 8.1163 123.741 8.1876C123.814 8.2587 123.85 8.34671 123.85 8.45101V9.86158C123.85 9.96609 123.814 10.0514 123.741 10.1179C123.669 10.1845 123.579 10.2177 123.472 10.2177H118.879V12.0271H123.153C123.259 12.0271 123.349 12.0628 123.422 12.1339C123.494 12.2052 123.53 12.293 123.53 12.3975V13.694C123.53 13.7985 123.494 13.8863 123.422 13.9576C123.349 14.0287 123.259 14.0645 123.153 14.0645H118.879V15.9166H123.589C123.695 15.9166 123.785 15.9522 123.858 16.0233C123.93 16.0946 123.967 16.1824 123.967 16.2869V17.6975C123.967 17.802 123.93 17.8876 123.858 17.954C123.785 18.0204 123.695 18.0536 123.589 18.0536H116.611ZM129.432 18.1962C128.492 18.1962 127.692 18.0634 127.033 17.7974C126.374 17.5315 125.875 17.1801 125.536 16.7429C125.197 16.3063 125.018 15.8312 124.999 15.3183C124.999 15.2329 125.03 15.1616 125.093 15.1046C125.156 15.0477 125.231 15.0192 125.318 15.0192H127.251C127.368 15.0192 127.462 15.0382 127.535 15.0762C127.608 15.1141 127.688 15.1806 127.775 15.2755C127.901 15.5035 128.097 15.6911 128.363 15.8384C128.63 15.9857 128.986 16.0592 129.432 16.0592C129.955 16.0592 130.357 15.9808 130.638 15.8243C130.919 15.6674 131.06 15.4515 131.06 15.1759C131.06 14.9766 130.987 14.8126 130.842 14.6845C130.697 14.5561 130.464 14.4421 130.144 14.3424C129.824 14.2428 129.364 14.1312 128.763 14.0077C127.591 13.7798 126.714 13.433 126.132 12.9675C125.551 12.5022 125.26 11.8373 125.26 10.9731C125.26 10.3841 125.427 9.85936 125.762 9.39875C126.096 8.93793 126.571 8.57959 127.186 8.3231C127.801 8.06662 128.516 7.93848 129.33 7.93848C130.183 7.93848 130.922 8.08332 131.547 8.37281C132.172 8.6627 132.652 9.02349 132.986 9.45559C133.32 9.88788 133.497 10.3128 133.517 10.7309C133.517 10.8162 133.487 10.89 133.429 10.9517C133.371 11.0134 133.298 11.0442 133.211 11.0442H131.176C130.963 11.0442 130.798 10.9588 130.682 10.7877C130.624 10.5883 130.474 10.4198 130.231 10.2821C129.989 10.1444 129.689 10.0755 129.33 10.0755C128.923 10.0755 128.608 10.1468 128.385 10.2892C128.162 10.4316 128.051 10.6406 128.051 10.9161C128.051 11.1915 128.197 11.4076 128.487 11.5643C128.778 11.7212 129.321 11.8801 130.115 12.0416C131.026 12.203 131.75 12.4049 132.288 12.6471C132.826 12.8891 133.223 13.2028 133.48 13.5873C133.737 13.9721 133.865 14.459 133.865 15.0477C133.865 15.6935 133.676 16.254 133.298 16.7288C132.921 17.2037 132.397 17.5669 131.729 17.8187C131.06 18.0705 130.294 18.1962 129.432 18.1962ZM137.878 18.0536C137.771 18.0536 137.681 18.0204 137.609 17.954C137.536 17.8876 137.5 17.802 137.5 17.6975V10.4029H134.942C134.835 10.4029 134.746 10.3697 134.673 10.3032C134.6 10.2366 134.564 10.1513 134.564 10.0468V8.45101C134.564 8.34671 134.6 8.2587 134.673 8.1876C134.746 8.1163 134.835 8.08065 134.942 8.08065H142.835C142.941 8.08065 143.031 8.1163 143.104 8.1876C143.176 8.2587 143.213 8.34671 143.213 8.45101V10.0468C143.213 10.1513 143.176 10.2366 143.104 10.3032C143.031 10.3697 142.941 10.4029 142.835 10.4029H140.276V17.6975C140.276 17.802 140.24 17.8876 140.167 17.954C140.095 18.0204 140.005 18.0536 139.899 18.0536H137.878Z" fill="black" style="fill:black;fill:black;fill-opacity:1;"/>
</svg>
