<svg version="1.1" id="Layer_1" xmlns:x="ns_extend;" xmlns:i="ns_ai;" xmlns:graph="ns_graphs;" xmlns="http://www.w3.org/2000/svg" xmlns:xlink="http://www.w3.org/1999/xlink" x="0px" y="0px" viewBox="0 0 318.4 56" style="enable-background:new 0 0 318.4 56;" xml:space="preserve">
 <style type="text/css">
  .st0{fill-rule:evenodd;clip-rule:evenodd;}
 </style>
 <metadata>
  <sfw xmlns="ns_sfw;">
   <slices>
   </slices>
   <sliceSourceBounds bottomLeftOrigin="true" height="56" width="318.4" x="-172.3" y="0.3">
   </sliceSourceBounds>
  </sfw>
 </metadata>
 <desc>
  Created with Sketch.
 </desc>
 <g id="Final">
  <g id="Montserrat--Homepage" transform="translate(-63.000000, -54.000000)">
   <g id="LOGO" transform="translate(63.000000, 54.000000)">
    <path id="Fills" d="M17.4,45.5v5c0,1-1.1,1.7-2.1,1.1L13,50.1l-0.6-0.3c0,0-3.2-1.9-10.2-5.9l-0.6-0.3c-0.5-0.3-1-0.8-1.3-1.3
				C0.2,41.8,0,41.2,0,40.6l0-12.3V15.9c0-0.7,0.2-1.3,0.5-1.8c0.3-0.6,0.8-1,1.3-1.3l10-5.8l0.5-0.3c0.2-0.1,0.2-0.1,0.6-0.3
				l9.6-5.5l0.6-0.3C23.7,0.1,24.4,0,25.1,0c0.7,0,1.3,0.2,1.7,0.6l10,5.8l0.6,0.3c0,0,3.4,1.9,10.1,5.9l0.6,0.3
				c0.5,0.3,1,0.8,1.3,1.3c0.3,0.5,0.5,1.1,0.5,1.8l0,11.2c0,1-1.1,1.7-2,1.2l-4.3-2.5c-0.4-0.2-0.7-0.7-0.7-1.2v-6.8L34,12.8
				c-0.1,0-0.2-0.1-0.7-0.4l-8.4-4.9l-8.7,5c-0.1,0.1-0.1,0.1-0.1,0.1c0,0-0.2,0.1-0.6,0.4L7,17.9v20.7l8.8,5.1
				c0.1,0,0.2,0.1,0.7,0.4l0.2,0.2l0.1,0.2C17.2,44.7,17.4,45.1,17.4,45.5z M42.8,32.8c0-1,1.1-1.7,2-1.2l4.3,2.5
				c0.4,0.2,0.7,0.7,0.7,1.2v4.1c0,0.4-0.1,0.7-0.4,0.9l-2,2.1c-0.8,1-1.9,1.4-2.9,0.8l-16-9.3l0,17.5c0.1,0.7-0.2,1.3-0.7,1.7
				c-0.5,0.4-0.5,0.4-3,2.4C24.4,55.8,24,56,23.5,56c-1.1,0-2-0.9-2-2l0-24.2l-2.7-1.6L17.4,29c-0.1,0,0,0-1.4,0.8
				c-1,0.6-2.2,0.3-2.7-0.7c-0.1-0.2-0.1-0.2-0.8-1.3l-0.8-1.3c-0.6-1-0.3-2.2,0.7-2.7c0.2-0.1,0.2-0.1,1.3-0.8l3.3-1.9l0.6-0.3
				c0.6-0.4,1.5-0.5,2.1-0.1l0.7,0.4L42.8,34V32.8z">
    </path>
    <g id="LOGO-New" transform="translate(29.000000, 6.000000)">
     <path id="Lambda" class="st0" d="M35.1,33.5c-0.3,0-0.5-0.1-0.7-0.3c-0.2-0.2-0.3-0.4-0.3-0.7V8c0-0.3,0.1-0.5,0.3-0.7
					c0.2-0.2,0.4-0.3,0.7-0.3h5.3c0.3,0,0.5,0.1,0.7,0.3c0.2,0.2,0.3,0.4,0.3,0.7v19.5h11.4c0.3,0,0.5,0.1,0.7,0.3
					c0.2,0.2,0.3,0.4,0.3,0.7v4c0,0.3-0.1,0.5-0.3,0.7c-0.2,0.2-0.4,0.3-0.7,0.3H35.1z M55.4,33.5c-0.2,0-0.4-0.1-0.5-0.2
					c-0.2-0.2-0.2-0.3-0.2-0.5c0-0.2,0-0.3,0-0.3l8.8-24.2c0.3-0.7,0.8-1.1,1.5-1.1h5.9c0.8,0,1.3,0.4,1.5,1.1l8.8,24.2
					c0,0.1,0,0.2,0,0.3c0,0.2-0.1,0.4-0.2,0.5c-0.2,0.2-0.3,0.2-0.5,0.2h-4.9c-0.6,0-1-0.3-1.3-0.8L72.9,29H63l-1.4,3.7
					c-0.3,0.6-0.7,0.8-1.3,0.8H55.4z M64.6,23.3h6.7L68,13.7L64.6,23.3z M85.2,33.5c-0.3,0-0.5-0.1-0.7-0.3
					c-0.2-0.2-0.3-0.4-0.3-0.7V8.1c0-0.3,0.1-0.5,0.3-0.7c0.2-0.2,0.4-0.3,0.7-0.3h4.3c0.6,0,1.1,0.3,1.4,0.8l6.5,11.6l6.6-11.6
					c0.3-0.6,0.7-0.8,1.4-0.8h4.3c0.3,0,0.5,0.1,0.7,0.3c0.2,0.2,0.3,0.4,0.3,0.7v24.5c0,0.3-0.1,0.5-0.3,0.7
					c-0.2,0.2-0.4,0.3-0.7,0.3h-4.8c-0.3,0-0.5-0.1-0.7-0.3c-0.2-0.2-0.3-0.4-0.3-0.7V18.8l-4.1,7.5c-0.3,0.6-0.8,0.9-1.3,0.9h-2
					c-0.5,0-0.9-0.3-1.3-0.9l-4.1-7.5v13.7c0,0.3-0.1,0.5-0.3,0.7c-0.2,0.2-0.4,0.3-0.7,0.3H85.2z M116.6,33.5
					c-0.3,0-0.5-0.1-0.7-0.3c-0.2-0.2-0.3-0.4-0.3-0.7V8.1c0-0.3,0.1-0.5,0.3-0.7c0.2-0.2,0.4-0.3,0.7-0.3h11.7c3.2,0,5.6,0.7,7.2,2
					c1.6,1.3,2.3,3.2,2.3,5.6c0,1.2-0.3,2.3-1,3.1c-0.6,0.9-1.4,1.5-2.1,1.9c1,0.5,1.9,1.2,2.6,2.2c0.7,1,1.1,2.2,1.1,3.5
					c0,2.5-0.8,4.5-2.5,5.9c-1.7,1.4-4.1,2.1-7.2,2.1H116.6z M127.5,17.5c0.9,0,1.7-0.3,2.2-0.8c0.5-0.5,0.8-1.2,0.8-2
					c0-0.8-0.2-1.4-0.7-1.9c-0.5-0.5-1.2-0.7-2.2-0.7h-4.7v5.4H127.5z M127.8,28.4c1,0,1.7-0.3,2.3-0.8c0.5-0.6,0.8-1.3,0.8-2.1
					c0-0.9-0.3-1.6-0.8-2.1c-0.6-0.6-1.3-0.8-2.3-0.8h-5.1v5.9H127.8z M143.4,33.5c-0.3,0-0.5-0.1-0.7-0.3c-0.2-0.2-0.3-0.4-0.3-0.7
					V8.1c0-0.3,0.1-0.5,0.3-0.7c0.2-0.2,0.4-0.3,0.7-0.3h10c3.7,0,6.6,0.9,8.7,2.7c2.1,1.8,3.2,4.3,3.3,7.6c0,0.7,0,1.7,0,2.9
					s0,2.2,0,2.9c-0.3,6.9-4.2,10.3-11.8,10.3H143.4z M153.3,27.8c1.6,0,2.8-0.4,3.5-1.1c0.8-0.8,1.2-2,1.2-3.6
					c0.1-0.7,0.1-1.7,0.1-2.8c0-1.2,0-2.1-0.1-2.8c-0.1-1.6-0.5-2.8-1.3-3.6c-0.8-0.8-2-1.2-3.6-1.2h-3.6v15.1H153.3z M168.2,33.5
					c-0.2,0-0.4-0.1-0.5-0.2c-0.2-0.2-0.2-0.3-0.2-0.5c0-0.2,0-0.3,0-0.3l8.8-24.2c0.3-0.7,0.8-1.1,1.5-1.1h5.9
					c0.8,0,1.3,0.4,1.5,1.1l8.8,24.2c0,0.1,0,0.2,0,0.3c0,0.2-0.1,0.4-0.2,0.5c-0.2,0.2-0.3,0.2-0.5,0.2h-4.9c-0.6,0-1-0.3-1.3-0.8
					l-1.4-3.7h-9.9l-1.4,3.7c-0.3,0.6-0.7,0.8-1.3,0.8H168.2z M177.3,23.3h6.7l-3.4-9.6L177.3,23.3z">
     </path>
     <path id="Test" class="st0" d="M201.9,33.9c-0.3,0-0.5-0.1-0.7-0.3c-0.2-0.2-0.3-0.4-0.3-0.7V13.6h-6.7c-0.3,0-0.5-0.1-0.7-0.3
					c-0.2-0.2-0.3-0.4-0.3-0.7V8.4c0-0.3,0.1-0.5,0.3-0.7c0.2-0.2,0.4-0.3,0.7-0.3h20.6c0.3,0,0.5,0.1,0.7,0.3
					c0.2,0.2,0.3,0.4,0.3,0.7v4.2c0,0.3-0.1,0.5-0.3,0.7c-0.2,0.2-0.4,0.3-0.7,0.3h-6.7v19.3c0,0.3-0.1,0.5-0.3,0.7
					c-0.2,0.2-0.4,0.3-0.7,0.3H201.9z M220.1,33.9c-0.3,0-0.5-0.1-0.7-0.3c-0.2-0.2-0.3-0.4-0.3-0.7V8.4c0-0.3,0.1-0.5,0.3-0.7
					c0.2-0.2,0.4-0.3,0.7-0.3h17.9c0.3,0,0.5,0.1,0.7,0.3c0.2,0.2,0.3,0.4,0.3,0.7v3.7c0,0.3-0.1,0.5-0.3,0.7
					c-0.2,0.2-0.4,0.3-0.7,0.3h-12v4.8h11.1c0.3,0,0.5,0.1,0.7,0.3c0.2,0.2,0.3,0.4,0.3,0.7v3.4c0,0.3-0.1,0.5-0.3,0.7
					c-0.2,0.2-0.4,0.3-0.7,0.3H226v4.9h12.3c0.3,0,0.5,0.1,0.7,0.3c0.2,0.2,0.3,0.4,0.3,0.7v3.7c0,0.3-0.1,0.5-0.3,0.7
					c-0.2,0.2-0.4,0.3-0.7,0.3H220.1z M253.5,34.2c-2.4,0-4.5-0.4-6.2-1.1c-1.7-0.7-3-1.6-3.9-2.8c-0.9-1.2-1.4-2.4-1.4-3.8
					c0-0.2,0.1-0.4,0.2-0.6c0.2-0.2,0.4-0.2,0.6-0.2h5c0.3,0,0.5,0.1,0.7,0.2c0.2,0.1,0.4,0.3,0.6,0.5c0.3,0.6,0.8,1.1,1.5,1.5
					c0.7,0.4,1.6,0.6,2.8,0.6c1.4,0,2.4-0.2,3.1-0.6c0.7-0.4,1.1-1,1.1-1.7c0-0.5-0.2-1-0.6-1.3c-0.4-0.3-1-0.6-1.8-0.9
					c-0.8-0.3-2-0.6-3.6-0.9c-3.1-0.6-5.3-1.5-6.9-2.8c-1.5-1.2-2.3-3-2.3-5.3c0-1.6,0.4-2.9,1.3-4.2c0.9-1.2,2.1-2.2,3.7-2.8
					c1.6-0.7,3.5-1,5.6-1c2.2,0,4.1,0.4,5.8,1.1c1.6,0.8,2.9,1.7,3.7,2.9c0.9,1.1,1.3,2.3,1.4,3.4c0,0.2-0.1,0.4-0.2,0.6
					c-0.2,0.2-0.3,0.2-0.6,0.2H258c-0.6,0-1-0.2-1.3-0.7c-0.2-0.5-0.5-1-1.2-1.3c-0.6-0.4-1.4-0.5-2.3-0.5c-1.1,0-1.9,0.2-2.5,0.6
					c-0.6,0.4-0.9,0.9-0.9,1.7s0.4,1.3,1.1,1.7c0.8,0.4,2.2,0.8,4.2,1.3c2.4,0.4,4.3,1,5.7,1.6c1.4,0.6,2.4,1.5,3.1,2.5
					c0.7,1,1,2.3,1,3.9c0,1.7-0.5,3.2-1.5,4.5s-2.3,2.2-4.1,2.9C257.7,33.9,255.7,34.2,253.5,34.2z M275.5,33.9
					c-0.3,0-0.5-0.1-0.7-0.3c-0.2-0.2-0.3-0.4-0.3-0.7V13.6h-6.7c-0.3,0-0.5-0.1-0.7-0.3c-0.2-0.2-0.3-0.4-0.3-0.7V8.4
					c0-0.3,0.1-0.5,0.3-0.7c0.2-0.2,0.4-0.3,0.7-0.3h20.6c0.3,0,0.5,0.1,0.7,0.3c0.2,0.2,0.3,0.4,0.3,0.7v4.2c0,0.3-0.1,0.5-0.3,0.7
					c-0.2,0.2-0.4,0.3-0.7,0.3h-6.7v19.3c0,0.3-0.1,0.5-0.3,0.7c-0.2,0.2-0.4,0.3-0.7,0.3H275.5z">
     </path>
    </g>
   </g>
  </g>
 </g>
</svg>