<?xml version="1.0" encoding="UTF-8" standalone="no"?><!DOCTYPE svg PUBLIC "-//W3C//DTD SVG 1.1//EN" "http://www.w3.org/Graphics/SVG/1.1/DTD/svg11.dtd"><svg width="100%" height="100%" viewBox="0 0 512 512" version="1.1" xmlns="http://www.w3.org/2000/svg" xmlns:xlink="http://www.w3.org/1999/xlink" xml:space="preserve" xmlns:serif="http://www.serif.com/" style="fill-rule:evenodd;clip-rule:evenodd;stroke-linecap:square;stroke-miterlimit:2;"><rect id="Artboard1" x="-0" y="0" width="512" height="512" style="fill:none;"/><clipPath id="_clip1"><rect id="Artboard11" serif:id="Artboard1" x="-0" y="0" width="512" height="512"/></clipPath><g clip-path="url(#_clip1)"><g><rect x="-0" y="-0" width="512" height="512" style="fill:#044cc7;"/><g><path d="M110.943,436l20.029,-57.741l85.227,-0l19.922,57.741l34.943,0l-78.516,-218.182l-38.032,0l-78.516,218.182l34.943,0Zm29.617,-85.44l32.173,-93.111l1.704,-0l32.174,93.111l-66.051,-0Z" style="fill:#fff;fill-rule:nonzero;"/><rect x="299.935" y="217.818" width="31.854" height="218.182" style="fill:#fff;fill-rule:nonzero;"/></g><g><path d="M391.182,76.636l-5.637,0l-11.636,7.728l0,5.727l11.364,-7.546l0.272,0l0,40.637l5.637,-0l-0,-46.546Z" style="fill:#fff;fill-opacity:0.21;fill-rule:nonzero;"/><path d="M420.273,123.818c9.022,0 15.727,-5.659 15.727,-13.273c-0,-5.909 -3.5,-10.204 -9.364,-11.181l0,-0.364c4.705,-1.432 7.637,-5.295 7.637,-10.545c-0,-6.591 -5.205,-12.455 -13.818,-12.455c-8.046,0 -14.728,4.955 -15,12.273l5.454,-0c0.205,-4.637 4.614,-7.364 9.455,-7.364c5.136,0 8.454,3.114 8.454,7.818c0,4.909 -3.841,8.091 -9.363,8.091l-3.728,0l0,5l3.728,0c7.068,0 11,3.591 11,8.727c-0,4.932 -4.296,8.273 -10.273,8.273c-5.387,0 -9.659,-2.773 -10,-7.273l-5.727,0c0.34,7.319 6.795,12.273 15.818,12.273Z" style="fill:#fff;fill-opacity:0.21;fill-rule:nonzero;"/></g></g><g><g><path d="M0,256.002l512,0" style="fill:none;stroke:#fff;stroke-opacity:0.2;stroke-width:3px;"/></g><g><path d="M0,46l512,-0" style="fill:none;stroke:#fff;stroke-opacity:0.2;stroke-width:3px;"/></g><g><path d="M0,466l512,-0" style="fill:none;stroke:#fff;stroke-opacity:0.2;stroke-width:3px;"/></g></g><g><g><path d="M255.998,0l-0,512" style="fill:none;stroke:#fff;stroke-opacity:0.2;stroke-width:3px;"/></g><g><path d="M466,0l0,512" style="fill:none;stroke:#fff;stroke-opacity:0.2;stroke-width:3px;"/></g><g><path d="M46,0l0,512" style="fill:none;stroke:#fff;stroke-opacity:0.2;stroke-width:3px;"/></g></g><g><g><path d="M466,241l-0,30" style="fill:none;stroke:#fff;stroke-opacity:0.25;stroke-width:3px;stroke-linejoin:round;stroke-miterlimit:1.5;"/><path d="M451,256l30,-0" style="fill:none;stroke:#fff;stroke-opacity:0.25;stroke-width:3px;stroke-linejoin:round;stroke-miterlimit:1.5;"/></g><g><path d="M46,241l-0,30" style="fill:none;stroke:#fff;stroke-opacity:0.25;stroke-width:3px;stroke-linejoin:round;stroke-miterlimit:1.5;"/><path d="M31,256l30,-0" style="fill:none;stroke:#fff;stroke-opacity:0.25;stroke-width:3px;stroke-linejoin:round;stroke-miterlimit:1.5;"/></g><g><path d="M256,241l-0,30" style="fill:none;stroke:#fff;stroke-opacity:0.25;stroke-width:3px;stroke-linejoin:round;stroke-miterlimit:1.5;"/><path d="M241,256l30,-0" style="fill:none;stroke:#fff;stroke-opacity:0.25;stroke-width:3px;stroke-linejoin:round;stroke-miterlimit:1.5;"/></g></g><g><g><path d="M466,451l-0,30" style="fill:none;stroke:#fff;stroke-opacity:0.25;stroke-width:3px;stroke-linejoin:round;stroke-miterlimit:1.5;"/><path d="M451,466l30,0" style="fill:none;stroke:#fff;stroke-opacity:0.25;stroke-width:3px;stroke-linejoin:round;stroke-miterlimit:1.5;"/></g><g><path d="M46,451l-0,30" style="fill:none;stroke:#fff;stroke-opacity:0.25;stroke-width:3px;stroke-linejoin:round;stroke-miterlimit:1.5;"/><path d="M31,466l30,0" style="fill:none;stroke:#fff;stroke-opacity:0.25;stroke-width:3px;stroke-linejoin:round;stroke-miterlimit:1.5;"/></g><g><path d="M256,451l-0,30" style="fill:none;stroke:#fff;stroke-opacity:0.25;stroke-width:3px;stroke-linejoin:round;stroke-miterlimit:1.5;"/><path d="M241,466l30,0" style="fill:none;stroke:#fff;stroke-opacity:0.25;stroke-width:3px;stroke-linejoin:round;stroke-miterlimit:1.5;"/></g></g><g><g><path d="M466,31l-0,30" style="fill:none;stroke:#fff;stroke-opacity:0.25;stroke-width:3px;stroke-linejoin:round;stroke-miterlimit:1.5;"/><path d="M451,46l30,-0" style="fill:none;stroke:#fff;stroke-opacity:0.25;stroke-width:3px;stroke-linejoin:round;stroke-miterlimit:1.5;"/></g><g><path d="M46,31l-0,30" style="fill:none;stroke:#fff;stroke-opacity:0.25;stroke-width:3px;stroke-linejoin:round;stroke-miterlimit:1.5;"/><path d="M31,46l30,-0" style="fill:none;stroke:#fff;stroke-opacity:0.25;stroke-width:3px;stroke-linejoin:round;stroke-miterlimit:1.5;"/></g><g><path d="M256,31l-0,30" style="fill:none;stroke:#fff;stroke-opacity:0.25;stroke-width:3px;stroke-linejoin:round;stroke-miterlimit:1.5;"/><path d="M241,46l30,-0" style="fill:none;stroke:#fff;stroke-opacity:0.25;stroke-width:3px;stroke-linejoin:round;stroke-miterlimit:1.5;"/></g></g></g></svg>